<svg xmlns="http://www.w3.org/2000/svg" width="83.437" height="37.41" viewBox="0 0 83.437 37.41">
  <metadata><?xpacket begin="﻿" id="W5M0MpCehiHzreSzNTczkc9d"?>
<x:xmpmeta xmlns:x="adobe:ns:meta/" x:xmptk="Adobe XMP Core 5.6-c138 79.159824, 2016/09/14-01:09:01        ">
   <rdf:RDF xmlns:rdf="http://www.w3.org/1999/02/22-rdf-syntax-ns#">
      <rdf:Description rdf:about=""/>
   </rdf:RDF>
</x:xmpmeta>
                                                                                                    
                                                                                                    
                                                                                                    
                                                                                                    
                                                                                                    
                                                                                                    
                                                                                                    
                                                                                                    
                                                                                                    
                                                                                                    
                                                                                                    
                                                                                                    
                                                                                                    
                                                                                                    
                                                                                                    
                                                                                                    
                                                                                                    
                                                                                                    
                                                                                                    
                                                                                                    
                           
<?xpacket end="w"?></metadata>
<defs>
    <style>
      .cls-1 {
        fill-rule: evenodd;
      }
    </style>
  </defs>
  <path id="logo" class="cls-1" d="M459.3,3285.63v-9.81a2.3,2.3,0,0,1,4.6,0v0.01h0v30.56a2.267,2.267,0,0,1,1.34,3.95c-0.036.04-.074,0.07-0.116,0.11a1.307,1.307,0,0,1-.28.17,2.246,2.246,0,0,1-1.149.31,2.292,2.292,0,0,1-1.384-.46c-1.968-.98-1.886-0.37-3.86.12a10.4,10.4,0,0,1-2.463.3,9.654,9.654,0,0,1-2.05-.18,8.269,8.269,0,0,1-1.832-.59,12.393,12.393,0,0,1-1.57-.89,9.861,9.861,0,0,1-1.339-1.1,10.385,10.385,0,0,1-2.627-4.24,18.442,18.442,0,0,1-.862-5.93,21.473,21.473,0,0,1,.74-5.96,11.139,11.139,0,0,1,2.263-4.32h0a10.634,10.634,0,0,1,1.233-1.18,14.571,14.571,0,0,1,1.456-1.02h0a6.45,6.45,0,0,1,1.864-.73,9.678,9.678,0,0,1,2.224-.21,7.752,7.752,0,0,1,1.3.13,7.055,7.055,0,0,1,1.2.35c0.377,0.15.735,0.32,1.071,0.49l0.223,0.12h0Zm0,20.71v-16.06a4.208,4.208,0,0,0-1.573-1.44,3.967,3.967,0,0,0-2.175-.37,4.576,4.576,0,0,0-2.233.8,5.506,5.506,0,0,0-1.663,1.95,11.09,11.09,0,0,0-1.062,2.97,17.959,17.959,0,0,0-.358,3.73,15.351,15.351,0,0,0,.417,3.71,9.9,9.9,0,0,0,1.237,2.94,5.375,5.375,0,0,0,1.915,1.86,5.2,5.2,0,0,0,2.566.58,8.374,8.374,0,0,0,1.882-.24,3.8,3.8,0,0,0,1.047-.43h0Zm-19,3.08a2.273,2.273,0,0,1-2.166,1.51,2.322,2.322,0,0,1-2.3-2.27c-0.043-1.01.557-1.32,1.147-2.25a12.7,12.7,0,0,0,.789-1.56q0.426-.975.862-2.22a22.632,22.632,0,0,0,.732-2.59,23.391,23.391,0,0,0,.436-2.73,15.524,15.524,0,0,0,.052-2.72,14.085,14.085,0,0,0-.425-2.59h0a5.96,5.96,0,0,0-1.02-2.14,6.111,6.111,0,0,0-1.818-1.57,8.483,8.483,0,0,0-1.089-.51,6.328,6.328,0,0,0-1.083-.28H434.4a5.677,5.677,0,0,0-1.568.04,22.847,22.847,0,0,0-2.352.41v20.64l-0.007.08a2.273,2.273,0,0,1-2.3,2.27,2.812,2.812,0,0,1-2.3-2.27c0-.64,0-0.06,0-0.09v-20.34h-0.035a2.288,2.288,0,0,1-2.3-2.27,2.255,2.255,0,0,1,.9-1.81,1.3,1.3,0,0,1,.181-0.13,1.224,1.224,0,0,1,.314-0.16,2.447,2.447,0,0,1,.9-0.18,2.309,2.309,0,0,1,1.948,1.07c0.027,0,.257.42,1.216-0.04a15.28,15.28,0,0,1,2.514-.81,10.265,10.265,0,0,1,2.412-.24,15.024,15.024,0,0,1,2.109.22,9.958,9.958,0,0,1,1.84.53,10.709,10.709,0,0,1,1.526.73,8.025,8.025,0,0,1,1.232.88c0.35,0.31.64,0.59,0.869,0.83a4.865,4.865,0,0,1,.557.68l0.006,0.01a14.565,14.565,0,0,1,1.315,2.68,12.229,12.229,0,0,1,.667,2.76c0.106,0.89.182,1.69,0.226,2.38a17.892,17.892,0,0,1,.04,1.79v0.01a25.308,25.308,0,0,1-.326,3.1,12.024,12.024,0,0,1-.642,2.38c-0.266.66-.5,1.24-0.718,1.73-0.23.53-.438,0.99-0.624,1.37l-0.2.43-1.512,3.24h0Zm-23.378-14.8q-0.814.3-1.7,0.72c-0.832.39-1.707,0.84-2.624,1.36h0a10.938,10.938,0,0,0-2.242,1.64,5.731,5.731,0,0,0-1.72,3.05,6.188,6.188,0,0,0-.13,1.33,4.365,4.365,0,0,0,.178,1.24,3.687,3.687,0,0,0,.5,1.05l0.008,0.01a3.588,3.588,0,0,0,1.68,1.36,7,7,0,0,0,2.787.45h0.006a7.962,7.962,0,0,0,1.095-.08,8.1,8.1,0,0,0,1.093-.23l0-.01q0.574-.165,1.052-0.33c0.214-.08.418-0.16,0.61-0.24l-0.591-11.32h0Zm-5.927-6.43a9.254,9.254,0,0,0-.879,1.11,2.786,2.786,0,0,1-.959.68,2.513,2.513,0,0,1-1.122.2,3.714,3.714,0,0,1-.953-0.17,1.94,1.94,0,0,1-.738-0.41,1.763,1.763,0,0,1-.663-1.13,2.142,2.142,0,0,1,.29-1.3l0-.01a4.018,4.018,0,0,1,1.215-1.35c3.479-2.48,10.945-2.35,13.337,1.5a4.119,4.119,0,0,1,.622,2.03l0.791,16.98a2.288,2.288,0,0,1,2.142,2.27,2.24,2.24,0,0,1-.547,1.47,1.693,1.693,0,0,1-.513.45,2.374,2.374,0,0,1-1.241.36,2.309,2.309,0,0,1-1.835-.91,3.541,3.541,0,0,0-.57-0.08,9.959,9.959,0,0,0-1.434.15,12.964,12.964,0,0,1-1.994.47,16.365,16.365,0,0,1-2.281.18,13.181,13.181,0,0,1-2.188-.15,14.911,14.911,0,0,1-2.144-.5,8.154,8.154,0,0,1-1.993-.94,8.262,8.262,0,0,1-1.664-1.44h0a6.539,6.539,0,0,1-.952-1.39,4.637,4.637,0,0,1-.454-1.46c-0.059-.45-0.1-0.9-0.132-1.34-0.03-.46-0.045-0.91-0.045-1.34a9.008,9.008,0,0,1,.225-2.1,5.12,5.12,0,0,1,.7-1.66,11.75,11.75,0,0,1,.96-1.27,12.643,12.643,0,0,1,1.149-1.17,20.113,20.113,0,0,1,2.02-1.59,23.342,23.342,0,0,1,2.333-1.41l4.989-2.62a2.112,2.112,0,0,0-.193-0.83c-0.941-1.96-3.641-2.29-5.279-1.28h0Zm-21.545-2.5,0.221-.12a11.181,11.181,0,0,1,1.034-.47,6.2,6.2,0,0,1,1.218-.37,7.946,7.946,0,0,1,1.325-.13h0a9.517,9.517,0,0,1,2.207.22,6.685,6.685,0,0,1,1.853.72l0,0.01a12.176,12.176,0,0,1,1.467,1.02,9.922,9.922,0,0,1,1.225,1.17,11.111,11.111,0,0,1,2.281,4.32,21.456,21.456,0,0,1,.747,5.98,18.385,18.385,0,0,1-.862,5.91,10.565,10.565,0,0,1-2.627,4.27,9.857,9.857,0,0,1-1.339,1.09,11.517,11.517,0,0,1-1.555.89,7.344,7.344,0,0,1-1.832.59,9,9,0,0,1-2.047.17,10.98,10.98,0,0,1-2.449-.28c-2.648-.65-2.576-1.01-4.489.06a2.33,2.33,0,0,1-.955.2,2.27,2.27,0,1,1-.039-4.54v-30.57h0v-0.01a2.3,2.3,0,0,1,4.6,0v0.01h0v9.86h0Zm0,20.69a3.394,3.394,0,0,0,1.036.44,7.929,7.929,0,0,0,1.891.22h0.006a5.052,5.052,0,0,0,2.547-.58,5.267,5.267,0,0,0,1.919-1.86,9.638,9.638,0,0,0,1.246-2.93,15.2,15.2,0,0,0,.419-3.71,17.744,17.744,0,0,0-.362-3.73,11.118,11.118,0,0,0-1.072-2.96,5.7,5.7,0,0,0-1.666-1.96,4.593,4.593,0,0,0-2.2-.79,4.094,4.094,0,0,0-2.186.36,4.2,4.2,0,0,0-1.577,1.44v16.06h0Z" transform="translate(-382.563 -3273.56)"/>
</svg>
