<?xml version="1.0" encoding="UTF-8"?>
<!DOCTYPE svg PUBLIC "-//W3C//DTD SVG 1.1//EN" "http://www.w3.org/Graphics/SVG/1.1/DTD/svg11.dtd">
<!-- Creator: CorelDRAW X8 -->
<svg xmlns="http://www.w3.org/2000/svg" xml:space="preserve" width="130.535mm" height="76.1308mm" version="1.1" style="shape-rendering:geometricPrecision; text-rendering:geometricPrecision; image-rendering:optimizeQuality; fill-rule:evenodd; clip-rule:evenodd"
viewBox="0 0 21511 12546"
 xmlns:xlink="http://www.w3.org/1999/xlink">
 <defs>
  <style type="text/css">
   <![CDATA[
    .fil0 {fill:black;fill-rule:nonzero}
   ]]>
  </style>
 </defs>
 <g id="Слой_x0020_1">
  <metadata id="CorelCorpID_0Corel-Layer"/>
  <path class="fil0" d="M20136 5854c-67,-14 -131,-27 -188,-42 -643,-167 -936,-259 -1153,-677l-821 -1664c-265,-510 -946,-925 -1520,-925l-1463 0 0 -1920c0,-345 -281,-626 -626,-626l-10189 10c-335,0 -588,267 -588,621l0 568 -2611 0c-538,0 -977,438 -977,977 0,539 439,978 977,978l2611 0 0 937 -1709 0c-539,0 -978,438 -978,977 0,539 439,978 978,978l1709 0 0 936 -808 0c-539,0 -978,439 -978,978 0,539 439,977 978,977l808 0 0 981c0,344 280,625 625,625l1060 0c165,1131 1141,2003 2318,2003 1176,0 2153,-872 2318,-2003l4289 0c22,0 45,-1 68,-3 164,1133 1141,2006 2318,2006 1177,0 2153,-872 2318,-2003l1523 0c599,0 1086,-487 1086,-1087l0 -1844c0,-1469 -827,-1643 -1375,-1758zm-13339 1414l-503 291 -1392 -2411 1382 -798 242 418 -879 508 359 621 818 -472 241 419 -818 472 550 952zm1087 -2415l165 -95c161,-93 265,-189 311,-287 46,-98 35,-205 -32,-321 -66,-114 -152,-173 -258,-176 -107,-3 -243,43 -407,138l-155 90 376 651zm240 416l534 925 -511 295 -1392 -2411 702 -406c328,-189 604,-269 830,-240 227,28 410,164 550,407 81,142 115,290 101,446 -14,155 -74,306 -181,451 675,332 1114,546 1315,641l-567 328 -1109 -593 -272 157zm3640 -869l-1388 802 -1392 -2411 1389 -802 241 419 -877 507 306 530 816 -471 242 418 -816 471 358 622 878 -507 243 422zm1891 -1091l-1388 801 -1392 -2411 1388 -801 242 418 -877 507 306 530 816 -471 242 419 -816 471 358 621 878 -507 243 423zm2929 6043c470,0 852,382 852,851 0,470 -382,852 -852,852 -469,0 -851,-382 -851,-852 0,-469 382,-851 851,-851zm-1593 -3630l0 -2268 1118 0c429,0 959,322 1156,702l731 1480c16,30 32,59 48,86l-3053 0 0 0zm-6548 4481c0,470 -383,852 -852,852 -470,0 -852,-382 -852,-852 0,-469 382,-851 852,-851 469,0 852,382 852,851z"/>
 </g>
</svg>
