<svg xmlns="http://www.w3.org/2000/svg" viewBox="0 0 512 512" width="22" height="25" fill="#19bd9b"><path d="M454.625 342.625l-35.883-35.879A64.01 64.01 0 01400 261.492V180.93c0-69.117-47.07-130.172-112.375-145.223.141-1.23.375-2.437.375-3.707 0-17.641-14.359-32-32-32s-32 14.359-32 32c0 1.25.227 2.434.367 3.645C160.086 50.078 112 107.359 112 176v85.492a64.01 64.01 0 01-18.742 45.254l-35.883 35.879A32.014 32.014 0 0048 365.254V400h416v-34.746a32.014 32.014 0 00-9.375-22.629zM192 448c0 35.344 28.656 64 64 64s64-28.656 64-64v-16H192v16z"/></svg>