<!DOCTYPE svg PUBLIC "-//W3C//DTD SVG 20010904//EN" "http://www.w3.org/TR/2001/REC-SVG-20010904/DTD/svg10.dtd">
<svg version="1.0" xmlns="http://www.w3.org/2000/svg" width="60px" height="60px" viewBox="0 0 600 600" preserveAspectRatio="xMidYMid meet">
<g id="layer101" fill="#ffffff" stroke="none">
 <path d="M367 594 c-5 -5 -41 -11 -80 -15 -84 -6 -137 -29 -187 -79 -65 -65 -90 -153 -94 -335 -1 -75 10 -100 63 -141 29 -21 105 -24 241 -7 88 11 141 34 190 83 65 65 90 153 94 335 1 75 -10 100 -63 140 -27 21 -149 34 -164 19z m25 -140 c34 -18 48 -43 48 -86 0 -47 -29 -74 -98 -93 -102 -29 -112 -35 -112 -65 0 -32 15 -40 71 -40 31 0 43 6 61 30 35 48 86 32 58 -19 -38 -72 -208 -72 -245 0 -33 63 -4 100 110 134 98 30 116 54 75 95 -29 29 -94 27 -123 -3 -12 -13 -27 -32 -33 -42 -14 -25 -44 -13 -44 18 0 30 44 75 79 83 14 3 31 7 36 9 17 6 89 -7 117 -21z"/>
 </g>

</svg>