<!DOCTYPE svg PUBLIC "-//W3C//DTD SVG 20010904//EN" "http://www.w3.org/TR/2001/REC-SVG-20010904/DTD/svg10.dtd">
<svg version="1.0" xmlns="http://www.w3.org/2000/svg" width="15px" height="15px" viewBox="0 0 1000 1000" preserveAspectRatio="xMidYMid meet">
<g id="layer101" fill="#19bd9b" stroke="none">
 <path d="M253 983 c-57 -162 -116 -276 -198 -382 -30 -39 -55 -79 -55 -89 0 -25 117 -92 161 -92 56 0 78 19 160 138 l51 74 87 -130 c186 -276 317 -414 452 -477 80 -37 115 -31 68 11 -37 33 -214 275 -285 389 -37 61 -109 196 -160 300 -51 105 -103 200 -116 211 -65 60 -151 84 -165 47z"/>
 </g>

</svg>