<!DOCTYPE svg PUBLIC "-//W3C//DTD SVG 20010904//EN" "http://www.w3.org/TR/2001/REC-SVG-20010904/DTD/svg10.dtd">
<svg version="1.0" xmlns="http://www.w3.org/2000/svg" width="60px" height="60px" viewBox="0 0 600 600" preserveAspectRatio="xMidYMid meet">
<g id="layer101" fill="#ffffff" stroke="none">
 <path d="M162 569 c-108 -53 -162 -144 -162 -269 0 -125 54 -216 162 -269 52 -27 72 -31 138 -31 66 0 86 4 138 31 108 53 162 143 162 270 0 177 -123 299 -301 299 -65 0 -85 -4 -137 -31z m233 -191 c-21 -24 -41 -47 -46 -52 -5 -5 -15 -4 -24 4 -12 10 -21 10 -39 2 -21 -9 -29 -5 -72 39 l-48 49 133 0 133 0 -37 -42z m-187 -51 l23 -24 -36 -22 c-20 -11 -38 -21 -41 -21 -2 0 -4 25 -4 55 0 50 2 55 18 46 9 -5 27 -20 40 -34z m240 -42 l-3 -25 -34 21 -34 20 34 35 34 35 3 -30 c2 -17 2 -43 0 -56z m-73 -27 c49 -28 75 -49 75 -61 0 -16 -12 -17 -147 -15 -176 4 -184 11 -78 74 39 24 71 43 73 43 1 1 36 -18 77 -41z"/>
 </g>

</svg>