<!DOCTYPE svg PUBLIC "-//W3C//DTD SVG 20010904//EN" "http://www.w3.org/TR/2001/REC-SVG-20010904/DTD/svg10.dtd">
<svg version="1.0" xmlns="http://www.w3.org/2000/svg" width="100px" height="100px" viewBox="0 0 1000 1000" preserveAspectRatio="xMidYMid meet">
<g id="layer101" fill="#35495c" stroke="none">
 <path d="M171 982 c-18 -14 -37 -76 -96 -312 -41 -162 -75 -307 -75 -322 l0 -28 125 0 125 0 0 43 c0 45 22 76 63 90 44 16 97 -43 97 -109 0 -24 2 -24 95 -24 l95 0 0 43 c0 45 22 76 63 90 44 16 97 -43 97 -109 0 -24 1 -24 120 -24 l120 0 0 28 c0 15 -34 160 -75 322 -59 236 -78 298 -96 312 -19 16 -50 18 -329 18 -279 0 -310 -2 -329 -18z"/>
 <path d="M292 408 c-19 -19 -16 -228 4 -276 19 -47 58 -88 108 -114 31 -16 54 -19 111 -16 83 4 128 28 173 93 26 39 27 44 27 180 l0 140 -28 3 c-49 6 -57 -10 -57 -120 0 -116 -14 -159 -62 -188 -42 -25 -92 -26 -133 0 -47 29 -58 62 -64 190 l-6 115 -30 3 c-17 2 -36 -3 -43 -10z"/>
 </g>

</svg>