<?xml version="1.0" standalone="no"?>
<!DOCTYPE svg PUBLIC "-//W3C//DTD SVG 20010904//EN"
 "http://www.w3.org/TR/2001/REC-SVG-20010904/DTD/svg10.dtd">
<svg version="1.0" xmlns="http://www.w3.org/2000/svg"
 width="450.000000pt" height="450.000000pt" viewBox="0 0 450.000000 450.000000"
 preserveAspectRatio="xMidYMid meet">
<metadata>
Created by potrace 1.11, written by Peter Selinger 2001-2013
</metadata>
<g transform="translate(0.000000,450.000000) scale(0.100000,-0.100000)"
fill="#000000" stroke="none">
<path d="M384 4226 c-62 -29 -118 -93 -133 -151 -8 -31 -11 -523 -11 -1693 l0
-1650 -37 -7 c-125 -23 -210 -132 -199 -256 9 -106 73 -185 173 -215 64 -19
122 -11 203 30 129 66 140 66 365 8 168 -44 165 -43 315 -47 196 -6 298 15
445 87 223 110 386 271 494 483 55 110 107 262 125 365 3 19 8 46 11 60 27
131 37 423 22 615 -42 515 -204 838 -537 1070 -142 99 -288 140 -490 138 -118
-1 -209 -22 -316 -73 l-84 -39 0 32 c-1 18 -1 263 -1 546 -1 417 -4 521 -15
555 -46 136 -201 202 -330 142z m827 -1596 c138 -37 255 -145 337 -311 48 -96
92 -226 106 -309 3 -19 8 -46 11 -59 18 -92 25 -389 12 -515 -44 -409 -233
-699 -498 -760 -130 -31 -385 -2 -438 49 -11 11 -13 160 -13 868 0 529 3 861
9 872 6 9 32 39 58 66 53 54 127 95 195 108 57 10 164 6 221 -9z"/>
<path d="M3935 4227 c-60 -30 -97 -67 -124 -127 -20 -43 -21 -63 -21 -592 0
-302 -2 -548 -4 -548 -2 0 -37 16 -77 35 -125 59 -211 75 -368 71 -75 -2 -147
-6 -160 -9 -132 -34 -190 -60 -297 -133 -156 -107 -277 -245 -358 -409 -42
-84 -99 -237 -110 -295 -2 -14 -9 -46 -15 -73 -6 -26 -14 -64 -17 -85 -3 -20
-7 -48 -10 -62 -19 -111 -25 -461 -11 -605 44 -454 219 -783 521 -982 172
-114 327 -160 536 -161 157 -1 240 13 395 64 103 35 113 36 163 26 29 -6 90
-30 135 -53 69 -35 92 -42 142 -42 79 -1 145 31 191 91 58 76 69 172 29 256
-24 51 -96 111 -150 126 l-45 13 0 61 c-1 33 -1 778 -1 1655 -1 1727 2 1633
-55 1708 -64 84 -194 116 -289 70z m-324 -1611 c62 -31 117 -76 155 -127 l24
-33 0 -862 0 -862 -47 -20 c-118 -50 -324 -61 -443 -23 -160 50 -276 170 -365
378 -35 80 -72 207 -81 278 -3 22 -9 65 -14 95 -8 59 -5 388 4 455 62 424 216
669 466 741 27 8 85 12 145 11 86 -3 108 -7 156 -31z"/>
</g>
</svg>
